# xmcd CD database file
#
# Track frame offsets:
#       150
#       15130
#       37428
#       54079
#       76861
#       97161
#       118554
#       136464
#       157327
#       177169
#       199763
#       218587
#
# Disc length: 3220 seconds
#
# Revision: 0
# Processed by: cddbd v1.5.1PL0 Copyright (c) Steve Scherf et al.
# Submitted via: jack 2.99.9
#
DISCID=9e0c920c
DTITLE=Various Artist - Clear Top 10 Album V.3
DYEAR=1900
DGENRE=
TTITLE0=Sheila On 7 - Melompat Lebih Tinggi
TTITLE1=Ari Lasso - Hampa
TTITLE2=Glenn Fredly - Januari
TTITLE3=Krisdayanti - Pilihlah Aku
TTITLE4=Gigi - Perihal Cinta
TTITLE5=Tere - Aku Patut Membenci Dia
TTITLE6=Melly and Anto Hoed - Tak Tahan Lagi
TTITLE7=Jikustik - Tak Pantas Untukmu
TTITLE8=Audy - Dibalas Dengan Dusta
TTITLE9=Ratu - Jangan Bilang Siapa-Siapa
TTITLE10=Marcell - Firasat
TTITLE11=Agnes Monica - Jera
EXTD=
EXTT0=
EXTT1=
EXTT2=
EXTT3=
EXTT4=
EXTT5=
EXTT6=
EXTT7=
EXTT8=
EXTT9=
EXTT10=
EXTT11=
PLAYORDER=
